<svg width="222" height="44" viewBox="0 0 222 44" fill="none" xmlns="http://www.w3.org/2000/svg">
<path d="M49.0995 31.8583C50.5475 31.7005 51.4508 31.4375 51.8092 31.0597C52.1724 30.6819 52.3492 29.6968 52.3492 28.0996V12.0557C52.3492 10.731 52.1485 9.86545 51.7423 9.46854C51.3409 9.07163 50.4567 8.82296 49.0947 8.72732V8.0387H59.3601V8.72732C58.0076 8.82296 57.1283 9.07163 56.7173 9.46854C56.311 9.86545 56.1056 10.7262 56.1056 12.0557V19.2718H67.3458V12.0557C67.3458 10.731 67.1451 9.86545 66.7484 9.46854C66.3518 9.07163 65.4677 8.82296 64.0913 8.72732V8.0387H74.3566V8.72732C72.9946 8.82296 72.1105 9.07163 71.7091 9.46854C71.3076 9.86545 71.1021 10.7262 71.1021 12.0557V28.5299C71.1021 29.8737 71.3028 30.7345 71.7091 31.1123C72.1105 31.4901 72.9946 31.7387 74.3566 31.8583V32.5469H64.0913V31.8583C65.5489 31.7148 66.4569 31.4518 66.8106 31.0645C67.1642 30.6819 67.3458 29.692 67.3458 28.0948V20.8977H56.1056V28.5299C56.1056 29.8737 56.311 30.7345 56.7173 31.1218C57.1235 31.5044 58.0028 31.7531 59.3601 31.8583V32.5469H49.0947V31.8583H49.0995Z" fill="white"/>
<path d="M86.2469 17.3446C87.5229 18.521 88.1633 20.1852 88.1633 22.3467H76.6889C76.8084 25.1394 77.444 27.1718 78.5861 28.4486C79.7283 29.7254 81.0856 30.3615 82.6531 30.3615C83.9195 30.3615 84.9853 30.0315 85.8503 29.3716C86.72 28.7116 87.5181 27.7696 88.2541 26.5549L88.8849 26.7749C88.3879 28.31 87.4656 29.7254 86.1131 31.031C84.7559 32.3365 83.0975 32.9868 81.1334 32.9868C78.8681 32.9868 77.119 32.1308 75.886 30.4189C74.6482 28.7069 74.0317 26.7366 74.0317 24.5034C74.0317 22.0789 74.7486 19.9891 76.1823 18.2293C77.616 16.4695 79.4846 15.5896 81.7833 15.5896C83.4847 15.58 84.9709 16.1682 86.2469 17.3446ZM77.5921 18.7266C77.205 19.377 76.9278 20.1995 76.7606 21.1846H84.3879C84.2541 19.9796 84.0247 19.0805 83.6997 18.4875C83.1071 17.4259 82.1226 16.8951 80.7367 16.8951C79.3604 16.8999 78.3137 17.512 77.5921 18.7266Z" fill="white"/>
<path d="M93.2628 24.5704C94.3716 23.8483 96.5795 22.8632 99.8961 21.6246V20.0848C99.8961 18.8558 99.7766 17.9998 99.5329 17.5168C99.1219 16.7086 98.276 16.3021 96.9857 16.3021C96.3692 16.3021 95.7862 16.4599 95.2318 16.7708C94.6774 17.096 94.4002 17.5407 94.4002 18.1098C94.4002 18.2532 94.4289 18.4971 94.491 18.8414C94.5484 19.1857 94.5818 19.4057 94.5818 19.5013C94.5818 20.1756 94.3572 20.6443 93.9128 20.9121C93.6595 21.0699 93.3584 21.1464 93.0095 21.1464C92.4647 21.1464 92.049 20.9694 91.7622 20.6156C91.4707 20.2617 91.3273 19.8648 91.3273 19.4296C91.3273 18.588 91.8482 17.7033 92.8901 16.7803C93.9319 15.8574 95.4612 15.3983 97.4732 15.3983C99.8101 15.3983 101.392 16.1587 102.228 17.6794C102.673 18.5115 102.897 19.7213 102.897 21.3138V28.5634C102.897 29.2616 102.945 29.7446 103.041 30.0124C103.198 30.481 103.523 30.7153 104.016 30.7153C104.293 30.7153 104.522 30.6723 104.704 30.591C104.885 30.5049 105.196 30.2993 105.645 29.9741V30.9114C105.258 31.3801 104.842 31.7674 104.398 32.0687C103.724 32.5278 103.036 32.7573 102.338 32.7573C101.516 32.7573 100.924 32.4943 100.556 31.9635C100.188 31.4327 99.9869 30.8014 99.9487 30.065C99.0311 30.8588 98.2474 31.4518 97.5974 31.8344C96.4982 32.4847 95.4564 32.8099 94.4719 32.8099C93.4349 32.8099 92.5412 32.4465 91.7813 31.7148C91.0215 30.9831 90.6392 30.0602 90.6392 28.9364C90.6439 27.1957 91.5185 25.7372 93.2628 24.5704ZM99.8961 22.5236C98.5102 22.9827 97.368 23.4896 96.46 24.0443C94.7252 25.1155 93.8602 26.335 93.8602 27.6978C93.8602 28.7929 94.2186 29.6011 94.9451 30.1224C95.4134 30.4619 95.9391 30.6293 96.5174 30.6293C97.3107 30.6293 98.0753 30.4045 98.8065 29.9598C99.5329 29.515 99.9009 28.946 99.9009 28.2574V22.5236H99.8961Z" fill="white"/>
<path d="M105.626 32.0401C106.744 31.9301 107.504 31.7053 107.901 31.361C108.297 31.0167 108.498 30.3472 108.498 29.3477V11.6731C108.498 10.8793 108.431 10.3294 108.297 10.0281C108.054 9.52121 107.566 9.26776 106.835 9.26776C106.663 9.26776 106.481 9.28689 106.285 9.32036C106.085 9.35862 105.836 9.41122 105.535 9.48295V8.88519C107.16 8.45002 109.119 7.87139 111.409 7.14929C111.495 7.14929 111.542 7.18755 111.562 7.25928C111.581 7.33101 111.59 7.48882 111.59 7.72792V29.4099C111.59 30.4572 111.772 31.1362 112.13 31.4423C112.493 31.7484 113.239 31.9444 114.372 32.0305V32.5374H105.626V32.0401Z" fill="white"/>
<path d="M123.304 15.8717V17.1724H119.614L119.576 27.5878C119.576 28.506 119.657 29.1946 119.81 29.668C120.102 30.5001 120.666 30.9162 121.507 30.9162C121.942 30.9162 122.314 30.8157 122.635 30.6101C122.955 30.4045 123.318 30.0793 123.729 29.6346L124.197 30.0315L123.801 30.5718C123.175 31.4183 122.51 32.0113 121.813 32.3603C121.115 32.7094 120.441 32.8864 119.786 32.8864C118.362 32.8864 117.402 32.2551 116.895 30.9879C116.618 30.2993 116.479 29.3476 116.479 28.1282V17.1724H114.51C114.453 17.1342 114.405 17.1007 114.376 17.0624C114.343 17.029 114.329 16.9764 114.329 16.919C114.329 16.7994 114.357 16.7038 114.41 16.6368C114.462 16.5699 114.634 16.4169 114.926 16.1778C115.758 15.4891 116.355 14.9344 116.723 14.504C117.091 14.0736 117.956 12.9451 119.318 11.1135C119.476 11.1135 119.566 11.1231 119.6 11.1518C119.629 11.1757 119.648 11.2666 119.648 11.4244V15.8717H123.304Z" fill="white"/>
<path d="M124.589 32.04C125.579 31.9061 126.224 31.6622 126.534 31.3083C126.84 30.9544 126.998 30.1128 126.998 28.7834V11.4244C126.998 10.7501 126.912 10.2528 126.735 9.93237C126.558 9.61197 126.138 9.45417 125.459 9.45417C125.325 9.45417 125.196 9.46373 125.072 9.48286C124.943 9.50199 124.804 9.52111 124.647 9.54502V8.89466C125.177 8.73685 125.827 8.55035 126.606 8.32559C127.38 8.10562 127.92 7.94302 128.226 7.84738L129.961 7.30701L129.999 7.43612V18.5401C130.759 17.6698 131.433 17.0338 132.021 16.6225C133.082 15.9004 134.224 15.537 135.457 15.537C137.407 15.537 138.74 16.3547 139.452 17.995C139.839 18.8605 140.03 20.0035 140.03 21.4142V28.7929C140.03 30.0698 140.179 30.9018 140.47 31.2892C140.766 31.6765 141.369 31.93 142.286 32.0495V32.5564H134.458V32.04C135.505 31.8965 136.178 31.6478 136.48 31.2987C136.781 30.9497 136.934 30.1128 136.934 28.7834V21.4572C136.934 20.2856 136.738 19.3387 136.346 18.6166C135.954 17.8946 135.218 17.5311 134.133 17.5311C133.192 17.5311 132.284 17.8706 131.404 18.5449C130.525 19.2192 130.085 19.6591 130.085 19.8648V28.7834C130.085 30.1319 130.243 30.9784 130.554 31.3131C130.869 31.6526 131.538 31.8917 132.561 32.0352V32.5421H124.589V32.04Z" fill="white"/>
<path d="M144.25 26.8466H144.848C145.125 28.2239 145.498 29.2759 145.966 30.0124C146.807 31.3609 148.04 32.04 149.66 32.04C150.563 32.04 151.275 31.7913 151.796 31.2892C152.317 30.7871 152.58 30.1415 152.58 29.3429C152.58 28.836 152.427 28.3482 152.126 27.8796C151.825 27.4109 151.295 26.9519 150.535 26.5071L148.518 25.3451C147.036 24.5512 145.947 23.7479 145.244 22.9397C144.547 22.1315 144.198 21.1799 144.198 20.08C144.198 18.7314 144.68 17.622 145.646 16.7517C146.611 15.8813 147.82 15.4509 149.278 15.4509C149.918 15.4509 150.616 15.5705 151.385 15.8144C152.15 16.0535 152.58 16.1778 152.676 16.1778C152.891 16.1778 153.049 16.1491 153.144 16.0869C153.24 16.0248 153.326 15.9291 153.397 15.7952H153.832L153.957 20.8403H153.397C153.158 19.6687 152.833 18.7601 152.422 18.1098C151.672 16.9047 150.597 16.3021 149.187 16.3021C148.341 16.3021 147.682 16.5604 147.199 17.0816C146.716 17.5981 146.477 18.2102 146.477 18.9084C146.477 20.0178 147.309 21.0077 148.972 21.8733L151.357 23.1549C153.923 24.556 155.204 26.1819 155.204 28.0374C155.204 29.4625 154.673 30.6245 153.608 31.5283C152.542 32.4321 151.151 32.8816 149.431 32.8816C148.709 32.8816 147.892 32.7621 146.974 32.523C146.062 32.2791 145.517 32.1595 145.35 32.1595C145.206 32.1595 145.077 32.2122 144.972 32.3126C144.862 32.413 144.781 32.5373 144.719 32.6808H144.25V26.8466Z" fill="white"/>
<path d="M169.283 16.656C170.372 17.4307 170.917 18.2819 170.917 19.2048C170.917 19.6018 170.779 19.97 170.501 20.3143C170.224 20.6586 169.794 20.826 169.221 20.826C168.8 20.826 168.427 20.6825 168.107 20.3908C167.787 20.0991 167.558 19.6783 167.409 19.1235L167.194 18.2532C167.037 17.6172 166.764 17.1629 166.382 16.8951C165.985 16.6416 165.46 16.5173 164.81 16.5173C163.438 16.5173 162.277 17.1198 161.331 18.3202C160.384 19.5205 159.911 21.1177 159.911 23.1118C159.911 24.9338 160.432 26.5693 161.474 28.0182C162.516 29.4672 163.921 30.1941 165.694 30.1941C166.946 30.1941 168.059 29.7828 169.039 28.9603C169.593 28.4917 170.22 27.7409 170.917 26.7127L171.424 27.0188C170.736 28.4677 170.014 29.6154 169.254 30.4571C167.797 32.0734 166.11 32.8816 164.193 32.8816C162.315 32.8816 160.652 32.1404 159.204 30.6579C157.756 29.1755 157.034 27.1622 157.034 24.6182C157.034 22.1219 157.823 19.9748 159.4 18.1815C160.977 16.3834 162.975 15.4844 165.383 15.4844C166.893 15.4892 168.188 15.8813 169.283 16.656Z" fill="white"/>
<path d="M174.401 18.0668C175.926 16.4074 177.885 15.5801 180.284 15.5801C182.669 15.5801 184.643 16.3643 186.21 17.9329C187.778 19.5014 188.561 21.5864 188.561 24.1878C188.561 26.5884 187.801 28.6734 186.287 30.4428C184.767 32.217 182.803 33.1017 180.394 33.1017C178.081 33.1017 176.122 32.2504 174.521 30.5528C172.92 28.8504 172.117 26.7176 172.117 24.1496C172.112 21.7538 172.877 19.7261 174.401 18.0668ZM177.283 17.6077C176.074 18.7028 175.472 20.5965 175.472 23.2888C175.472 25.436 175.959 27.4349 176.929 29.2903C177.899 31.1458 179.247 32.0735 180.977 32.0735C182.329 32.0735 183.371 31.4518 184.098 30.2133C184.829 28.9699 185.192 27.344 185.192 25.3308C185.192 23.2458 184.729 21.2803 183.797 19.4344C182.87 17.5886 181.522 16.6704 179.758 16.6704C178.812 16.6656 177.985 16.9812 177.283 17.6077Z" fill="white"/>
<path d="M188.155 40.0117C189.278 39.94 189.995 39.7009 190.301 39.2896C190.606 38.8784 190.759 38.2328 190.759 37.3529V19.9939C190.759 19.0758 190.649 18.4923 190.425 18.2293C190.2 17.9711 189.784 17.842 189.168 17.842C189.034 17.842 188.91 17.8468 188.795 17.8611C188.68 17.8754 188.513 17.8994 188.298 17.9328V17.3351L190.014 16.7756C190.076 16.766 191.285 16.35 193.646 15.5274C193.703 15.5274 193.751 15.5514 193.78 15.6087C193.808 15.6613 193.827 15.7283 193.827 15.8V18.2389C194.621 17.4451 195.319 16.8521 195.921 16.4647C197.006 15.7905 198.119 15.4509 199.266 15.4509C200.929 15.4509 202.358 16.1587 203.558 17.5742C204.757 18.9897 205.355 20.9264 205.355 23.3844C205.355 25.7946 204.633 27.98 203.194 29.9407C201.756 31.9061 199.945 32.8864 197.765 32.8864C197.092 32.8864 196.509 32.8003 196.012 32.633C195.242 32.3795 194.53 31.9157 193.88 31.2414V37.1712C193.88 38.3906 194.081 39.1366 194.477 39.414C194.874 39.6913 195.744 39.8778 197.082 39.9735V40.6047H188.155V40.0117ZM195.285 31.0358C195.906 31.4374 196.638 31.6431 197.479 31.6431C198.779 31.6431 199.892 30.9975 200.814 29.7015C201.737 28.4056 202.196 26.6028 202.196 24.293C202.196 22.0789 201.718 20.4195 200.757 19.3244C199.801 18.2293 198.688 17.6794 197.421 17.6794C196.532 17.6794 195.715 17.9567 194.979 18.5019C194.243 19.0518 193.875 19.5874 193.875 20.1182V29.2042C194.2 30.0219 194.664 30.6341 195.285 31.0358Z" fill="white"/>
<path d="M219.362 17.3446C220.638 18.521 221.279 20.1852 221.279 22.3467H209.804C209.924 25.1394 210.559 27.1718 211.701 28.4486C212.848 29.7254 214.201 30.3615 215.768 30.3615C217.035 30.3615 218.1 30.0315 218.965 29.3716C219.835 28.7116 220.633 27.7696 221.369 26.5549L222 26.7749C221.508 28.31 220.581 29.7254 219.228 31.031C217.871 32.3365 216.213 32.9868 214.249 32.9868C211.983 32.9868 210.234 32.1308 209.001 30.4189C207.763 28.7069 207.147 26.7366 207.147 24.5034C207.147 22.0789 207.864 19.9891 209.298 18.2293C210.731 16.4695 212.6 15.5896 214.899 15.5896C216.6 15.58 218.086 16.1682 219.362 17.3446ZM210.707 18.7266C210.32 19.377 210.043 20.1995 209.876 21.1846H217.503C217.369 19.9796 217.14 19.0805 216.815 18.4875C216.222 17.4259 215.238 16.8951 213.852 16.8951C212.48 16.8999 211.429 17.512 210.707 18.7266Z" fill="white"/>
<path d="M21.9835 0C9.84479 0 0 9.8511 0 21.9976C0 34.1489 9.84479 44 21.9835 44C34.1222 44 43.967 34.1489 43.967 21.9976C43.9718 9.8511 34.127 0 21.9835 0ZM6.81967 18.784C9.73009 25.5698 15.0014 28.2908 19.2069 28.8073C19.3073 28.8169 19.3025 28.8743 19.2021 28.8743C18.0456 28.8551 16.6788 28.7164 15.2164 28.3243C8.37763 26.4928 4.33457 20.4243 2.30349 15.5131C2.96777 13.4903 3.93792 11.6157 5.15657 9.91805C5.104 12.9595 5.71571 16.2161 6.81967 18.784ZM1.25688 21.9976C1.25688 20.3717 1.46238 18.7984 1.81603 17.2825L1.89249 17.4451C4.20554 21.9785 8.39674 27.5687 15.3407 28.9651C19.4267 29.7876 22.882 28.7451 22.8867 28.7451C23.8139 28.5299 25.1616 27.8365 26.1699 26.7414C26.9824 25.8568 27.8474 24.3408 27.3742 22.1411C27.0684 20.7256 26.385 19.6735 25.3432 19.0136C24.1484 18.258 22.7482 18.2245 21.9166 18.4206C20.6549 18.7267 19.6609 19.6161 19.3264 20.7447C18.9727 21.9163 19.3216 22.7101 19.3359 22.7436C19.3359 22.7436 19.3837 22.8488 19.4554 22.8297C19.5319 22.8106 19.5032 22.691 19.5032 22.691C19.183 20.8929 20.2439 19.3053 21.9692 18.9992C23.0445 18.808 24.1341 19.0423 25.0325 19.6687C25.931 20.2952 26.5284 21.2277 26.7243 22.3037C26.9633 23.6474 26.6908 24.9625 25.9453 26.0002C25.2094 27.0284 24.0528 27.7313 22.6956 27.9752C18.8771 28.6638 13.7636 26.005 11.5413 18.5545C10.0073 13.4042 11.0204 8.75122 14.3896 5.45636C17.4387 2.47234 21.9931 1.16205 26.5331 1.77415C35.7901 3.84958 42.7149 12.1082 42.7149 21.9976C42.7149 23.6187 42.5094 25.192 42.1558 26.7032L42.0745 26.531C39.7615 22.0024 35.5751 16.4121 28.6264 15.0158C24.5403 14.1932 21.0851 15.2357 21.0803 15.2357C20.1531 15.4509 18.8055 16.1443 17.7971 17.2394C16.9847 18.1241 16.1149 19.64 16.5928 21.8398C16.8986 23.2553 17.582 24.3074 18.6239 24.9625C19.8186 25.7181 21.2189 25.7515 22.0504 25.5555C23.3121 25.2494 24.3061 24.36 24.6406 23.2314C24.9943 22.0598 24.6454 21.2659 24.6311 21.2325C24.6311 21.2325 24.5881 21.1273 24.5116 21.1464C24.4352 21.1655 24.4638 21.2851 24.4638 21.2851C24.784 23.0831 23.7279 24.6708 21.9978 24.9768C20.9226 25.1681 19.8377 24.9338 18.9393 24.3074C18.0408 23.6809 17.4387 22.7484 17.2475 21.6724C17.0085 20.3287 17.2857 19.0136 18.0265 17.9759C18.7624 16.9477 19.919 16.2448 21.2762 16.0009C25.0899 15.317 30.2034 17.9759 32.4209 25.4264C33.955 30.5767 32.9418 35.2296 29.5726 38.5245C26.4997 41.5324 21.9023 42.8427 17.324 42.1924C8.12912 40.0835 1.25688 31.8535 1.25688 21.9976ZM37.1521 25.1968C34.2417 18.411 28.9657 15.6948 24.7649 15.1736C24.6645 15.1592 24.6693 15.1066 24.7697 15.1066C25.9262 15.1257 27.293 15.2644 28.7554 15.6566C35.5942 17.4881 39.642 23.5661 41.6683 28.4726C41.004 30.5002 40.0291 32.3795 38.8152 34.0724C38.8678 31.0358 38.2561 27.7744 37.1521 25.1968Z" fill="white"/>
</svg>
